<svg width="56" height="55" viewBox="0 0 56 55" fill="none" xmlns="http://www.w3.org/2000/svg">
<path fill-rule="evenodd" clip-rule="evenodd" d="M44.3312 4.31204H42.2268V2.17773H44.3312V4.31204ZM42.2268 4.31204V6.44634H40.1224V4.31204H42.2268ZM34.16 5.37919H32.0556V3.24489H34.16V5.37919ZM34.8615 8.22492H36.9659V6.09062H34.8615V8.22492ZM23.6381 10.0035H25.7425H27.8469H29.9513V12.1378H32.0556V14.2721H34.16H36.2644V12.1378H38.3688H40.4732V10.0035H38.3688H36.2644V12.1378H34.16H32.0556V10.0035H29.9513V7.86921H27.8469H25.7425H23.6381V10.0035ZM21.5337 12.1378H23.6381V10.0035H21.5337V12.1378ZM32.0556 27.7894V24.5879H30.6527V22.0979H27.8469V20.675H25.041V16.4064H23.6381H21.5337V14.2721V12.1378H19.4294V14.2721V16.4064H17.325H16.9742H15.2206V18.5407V20.675H12.7655V22.0979H9.95965V24.5879H8.55673V27.7894H7.15381V37.7494H8.55673V40.2395H9.60892V43.4409H12.4148V44.5081H15.2206V46.2866H25.041V44.5081H27.8469V43.4409H30.6527V40.2395H32.0556V37.7494H33.8093V27.7894H32.0556ZM39.7717 18.185H41.8761V16.0507H39.7717V18.185ZM41.8761 21.3865H39.7717V19.2521H41.8761V21.3865ZM42.9283 14.9835H45.0326V17.1178H47.137V14.9835H45.0326V12.8492H42.9283V14.9835ZM37.3166 17.8293V15.695H35.2122V17.8293H33.1078V19.9636H35.2122V17.8293H37.3166ZM43.279 10.7149H45.3834V8.58064H43.279V10.7149ZM48.5399 10.7149H46.4356V8.58064H48.5399V10.7149Z" fill="white"/>
</svg>
