<svg width="56" height="55" viewBox="0 0 56 55" fill="none" xmlns="http://www.w3.org/2000/svg">
<path fill-rule="evenodd" clip-rule="evenodd" d="M10.557 7.90137H8.24268V10.2157H10.557V7.90137ZM12.8714 12.5301H10.557V14.8444V17.1588H12.8714V19.4731H10.557V21.7875H12.8714V24.1019H15.1857V21.7875H12.8714V19.4731H15.1857H17.5001V21.7875V24.1019H19.8145V26.4162H17.5001V28.7306H19.8145V31.0449H22.1288V28.7306H19.8145V26.4162H24.4432V28.7306V31.0449H26.7575V33.3593H24.4432V35.6736H26.7575V37.988H29.0719H31.3862H33.7006V35.6736H36.015V37.988H38.3293V40.3024H40.6437V42.6167H42.958V44.9311H45.2724V42.6167H42.958V40.3024H40.6437V37.988H38.3293V35.6736H36.015V33.3593H38.3293V31.0449V28.7306V26.4162H36.015V24.1019H26.7575V21.7875H31.3862V19.4731H29.0719V17.1588H22.1288H19.8145V14.8444H22.1288H24.4432V12.5301H22.1288V10.2157H19.8145H17.5001H15.1857H12.8714V12.5301ZM33.7006 33.3593V31.0449H36.015V33.3593H33.7006ZM33.7006 33.3593H26.7575V35.6736H29.0719H31.3862H33.7006V33.3593ZM26.7575 24.1019V26.4162H24.4432V24.1019H26.7575ZM19.8145 17.1588V19.4731H17.5001V17.1588H19.8145Z" fill="white"/>
</svg>
