<svg width="56" height="55" viewBox="0 0 56 55" fill="none" xmlns="http://www.w3.org/2000/svg">
<path fill-rule="evenodd" clip-rule="evenodd" d="M24.6572 14.5749H26.7836H28.9099H31.0363H33.1626H35.289V16.7142H37.4154V18.8535H39.5417H41.6681H43.7944V20.9928H45.9208V23.1322H48.0471V25.2715V27.4108V29.5501V31.6894V33.8288V35.9681H45.9208H43.7944V38.1074H41.6681H39.5417H37.4154V35.9681H35.289H33.1626V38.1074H31.0363H28.9099H26.7836V40.2467H24.6572H22.5309H20.4045H18.2782V38.1074H16.1518H14.0254V35.9681H11.8991H9.77273V33.8288H7.64638V31.6894V29.5501V27.4108H9.77273V25.2715V23.1322H11.8991V20.9928H14.0254H16.1518V18.8535H18.2782V16.7142H20.4045H22.5309H24.6572V14.5749ZM24.6572 14.5749H22.5309H20.4045H18.2782V16.7142H16.1518V18.8535H14.0254H11.8991V20.9928H9.77273V23.1322H7.64638V25.2715V27.4108H5.52002V29.5501V31.6894V33.8288H7.64638V35.9681H9.77273V38.1074H11.8991H14.0254V40.2467H16.1518H18.2782V42.386H20.4045H22.5309H24.6572H26.7836V40.2467H28.9099H31.0363H33.1626V38.1074H35.289H37.4154V40.2467H39.5417H41.6681H43.7944V38.1074H45.9208H48.0471V35.9681H50.1735V33.8288V31.6894V29.5501V27.4108V25.2715V23.1322H48.0471V20.9928H45.9208V18.8535H43.7944V16.7142H41.6681H39.5417H37.4154V14.5749H35.289V12.4355H33.1626H31.0363H28.9099H26.7836H24.6572V14.5749ZM31.0363 23.1322H28.9099V20.9928H31.0363V23.1322ZM20.4045 20.9928H17.9238V23.1322H16.1518V25.2715V27.4108V29.5501H17.9238V31.6894H20.4045V33.8288H28.9099V31.6894H31.0363V29.5501H33.1626V27.4108V25.2715V23.1322H31.0363V25.2715H28.9099V23.1322H24.6572V20.9928H28.9099V18.8535H20.4045V20.9928Z" fill="white"/>
</svg>
