<svg width="56" height="56" viewBox="0 0 56 56" fill="none" xmlns="http://www.w3.org/2000/svg">
<path fill-rule="evenodd" clip-rule="evenodd" d="M16.1518 16.1587H14.0254V13.9805H16.1518H18.2782H20.4045H22.5309V16.1587V18.3369V20.5151V22.6933V24.8716V27.0498H24.6572H26.7836V24.8716V22.6933V20.5151V18.3369H28.9099V20.5151V22.6933V24.8716V27.0498H31.0363H33.1626V24.8716V22.6933H35.289V24.8716V27.0498H37.4154H39.5417V24.8716V22.6933H41.6681V24.8716V27.0498V29.228V31.4062V33.5844H39.5417V31.4062V29.228H37.4154H35.289V31.4062V33.5844H33.1626V31.4062V29.228H31.0363H28.9099V31.4062V33.5844V35.7626V37.9409H26.7836V35.7626V33.5844V31.4062V29.228H24.6572H22.5309V31.4062V33.5844V35.7626V37.9409V40.1191V42.2973H20.4045H18.2782H16.1518H14.0254V40.1191H16.1518H18.2782H20.4045V37.9409V35.7626V33.5844V31.4062V29.228V27.0498V24.8716V22.6933V20.5151V18.3369V16.1587H18.2782H16.1518ZM9.77273 37.9409H11.8991H14.0254V40.1191H11.8991H9.77273V37.9409ZM7.64638 35.7626V37.9409H9.77273V35.7626V33.5844H7.64638V31.4062V29.228V27.0498V24.8716V22.6933H9.77273V20.5151V18.3369H11.8991H14.0254V16.1587H11.8991H9.77273V18.3369H7.64638V20.5151V22.6933H5.52002V24.8716V27.0498V29.228V31.4062V33.5844H7.64638V35.7626ZM43.7944 35.7626H41.6681V33.5844H43.7944V35.7626ZM48.0471 35.7626V37.9409H45.9208H43.7944V35.7626H45.9208H48.0471ZM48.0471 31.4062H50.1735V33.5844V35.7626H48.0471V33.5844V31.4062ZM45.9208 29.228H48.0471V31.4062H45.9208V29.228ZM45.9208 27.0498V29.228H43.7944V27.0498H45.9208ZM48.0471 24.8716V27.0498H45.9208V24.8716H48.0471ZM48.0471 20.5151H50.1735V22.6933V24.8716H48.0471V22.6933V20.5151ZM43.7944 20.5151V18.3369H45.9208H48.0471V20.5151H45.9208H43.7944ZM43.7944 20.5151H41.6681V22.6933H43.7944V20.5151ZM14.0254 31.4062H11.8991V29.228V27.0498H14.0254H16.1518V29.228V31.4062H14.0254Z" fill="white"/>
</svg>
