<svg width="56" height="55" viewBox="0 0 56 55" fill="none" xmlns="http://www.w3.org/2000/svg">
<path fill-rule="evenodd" clip-rule="evenodd" d="M25.4241 10.1382H23.2799V7.99023H25.4241H27.5683H29.7125H31.8567V10.1382H29.7125H27.5683H25.4241ZM34.0008 12.2862H31.8567V10.1382H34.0008V12.2862ZM36.145 14.4341H34.0008V12.2862H36.145V14.4341ZM38.2892 16.5821H36.145V14.4341H38.2892V16.5821ZM40.4334 20.878H38.2892V18.7301V16.5821H40.4334V18.7301V20.878ZM42.5776 25.174H40.4334V23.026V20.878H42.5776V23.026V25.174ZM44.7218 29.4699H42.5776V27.3219V25.174H44.7218V27.3219V29.4699ZM46.8659 35.9138H44.7218V33.7658V31.6178V29.4699H46.8659V31.6178V33.7658V35.9138ZM46.8659 42.3577V40.2097V38.0617V35.9138H49.0101V38.0617V40.2097V42.3577H46.8659ZM44.7218 44.5056V42.3577H46.8659V44.5056H44.7218ZM10.4148 44.5056V46.6536H12.559H14.7032H16.8474H18.9916H21.1357H23.2799H25.4241H27.5683H29.7125H31.8567H34.0008H36.145H38.2892H40.4334H42.5776H44.7218V44.5056H42.5776H40.4334V42.3577V40.2097V38.0617V35.9138V33.7658H38.2892V31.6178H36.145H34.0008H31.8567H29.7125H27.5683H25.4241H23.2799H21.1357H18.9916H16.8474V33.7658H14.7032V35.9138V38.0617V40.2097V42.3577V44.5056H12.559H10.4148ZM8.27065 42.3577H10.4148V44.5056H8.27065V42.3577ZM8.27065 35.9138V38.0617V40.2097V42.3577H6.12646V40.2097V38.0617V35.9138H8.27065ZM10.4148 29.4699V31.6178V33.7658V35.9138H8.27065V33.7658V31.6178V29.4699H10.4148ZM12.559 25.174V27.3219V29.4699H10.4148V27.3219V25.174H12.559ZM14.7032 20.878V23.026V25.174H12.559V23.026V20.878H14.7032ZM16.8474 16.5821V18.7301V20.878H14.7032V18.7301V16.5821H16.8474ZM18.9916 14.4341V16.5821H16.8474V14.4341H18.9916ZM21.1357 12.2862V14.4341H18.9916V12.2862H21.1357ZM21.1357 12.2862H23.2799V10.1382H21.1357V12.2862ZM21.1357 20.878H23.2799V18.7301H21.1357V20.878ZM23.2799 29.4699H21.1357V27.3219H23.2799V29.4699ZM21.1357 27.3219H18.9916V25.174H21.1357V27.3219ZM29.7125 18.7301H27.5683V16.5821H29.7125V18.7301ZM29.7125 16.5821V14.4341H31.8567V16.5821H29.7125ZM31.8567 29.4699H29.7125V27.3219H31.8567V29.4699ZM31.8567 27.3219V25.174H34.0008V27.3219H31.8567ZM40.4334 29.4699H38.2892V27.3219H40.4334V29.4699ZM42.5776 41.2837H44.7218V39.1357H42.5776V41.2837ZM12.559 41.2837H10.4148V39.1357H12.559V41.2837Z" fill="white"/>
</svg>
