<svg width="56" height="56" viewBox="0 0 56 56" fill="none" xmlns="http://www.w3.org/2000/svg">
<path fill-rule="evenodd" clip-rule="evenodd" d="M31.1003 10.0223V7.90137H28.9312V10.0223H26.7621V12.1432V14.2641V16.385V18.5058V20.6267V22.7476V24.8685H24.593H22.4239V26.9894H20.2548V24.8685V22.7476V20.6267H18.0857V18.5058H15.9166H13.7475H11.5784H9.40933V20.6267H7.24023V22.7476V24.8685V26.9894V29.1103H9.40933V31.2312H11.5784H13.7475H15.9166H18.0857V29.1103H20.2548H22.4239H24.593H26.7621V31.2312V33.3521V35.473H24.593H22.4239V37.5939H20.2548V39.7148V41.8357V43.9566V46.0775H22.4239V48.1984H24.593H26.7621H28.9312H31.1003V46.0775H33.2694V43.9566V41.8357V39.7148V37.5939H31.1003V35.473H28.9312V33.3521H31.1003V31.2312V29.1103V26.9894V24.8685V22.7476V20.6267V18.5058V16.385V14.2641V12.1432V10.0223ZM24.593 37.5939H26.7621H28.9312H31.1003V39.7148V41.8357V43.9566V46.0775H28.9312H26.7621H24.593H22.4239V43.9566V41.8357V39.7148V37.5939H24.593ZM26.7621 29.1103V26.9894H28.9312V29.1103H26.7621ZM18.0857 29.1103H15.9166H13.7475H11.5784H9.40933V26.9894V24.8685V22.7476V20.6267H11.5784H13.7475H15.9166H18.0857V22.7476V24.8685V26.9894V29.1103ZM37.6076 28.0499H35.4385H33.2694V25.929V23.8081H35.4385H37.6076H39.7767H41.9458H44.1149H46.284H48.4531V25.929H46.284V28.0499H44.1149H41.9458H39.7767H37.6076Z" fill="white"/>
</svg>
